<svg width="214" height="48" viewBox="0 0 214 48" fill="none" xmlns="http://www.w3.org/2000/svg">
<rect width="48" height="48" rx="10" fill="#F83F3F"/>
<path fill-rule="evenodd" clip-rule="evenodd" d="M24.3997 7.20921C25.0674 7.38976 25.5313 7.99561 25.5313 8.6874V19.4061H34.7188C35.2671 19.4061 35.7735 19.6993 36.0465 20.1747C36.3197 20.6502 36.3177 21.2353 36.0414 21.7089L25.3227 40.0839C24.974 40.6815 24.2681 40.9711 23.6003 40.7906C22.9326 40.61 22.4688 40.0041 22.4688 39.3124V28.5937H13.2813C12.733 28.5937 12.2265 28.3005 11.9534 27.825C11.6804 27.3496 11.6823 26.7645 11.9586 26.2908L22.6773 7.91585C23.026 7.31829 23.7319 7.02867 24.3997 7.20921ZM15.9472 25.5312H24C24.8457 25.5312 25.5313 26.2167 25.5313 27.0624V33.6484L32.0528 22.4687H24C23.1543 22.4687 22.4688 21.7832 22.4688 20.9374V14.3514L15.9472 25.5312Z" fill="white"/>
<path d="M65.5518 27.335C65.6885 28.3213 65.957 29.0586 66.3574 29.5469C67.0898 30.4355 68.3447 30.8799 70.1221 30.8799C71.1865 30.8799 72.0508 30.7627 72.7148 30.5283C73.9746 30.0791 74.6045 29.2441 74.6045 28.0234C74.6045 27.3105 74.292 26.7588 73.667 26.3682C73.042 25.9873 72.0605 25.6504 70.7227 25.3574L68.4375 24.8447C66.1914 24.3369 64.6387 23.7852 63.7793 23.1895C62.3242 22.1934 61.5967 20.6357 61.5967 18.5166C61.5967 16.583 62.2998 14.9766 63.7061 13.6973C65.1123 12.418 67.1777 11.7783 69.9023 11.7783C72.1777 11.7783 74.1162 12.3838 75.7178 13.5947C77.3291 14.7959 78.1738 16.5439 78.252 18.8389H73.916C73.8379 17.54 73.2715 16.6172 72.2168 16.0703C71.5137 15.709 70.6396 15.5283 69.5947 15.5283C68.4326 15.5283 67.5049 15.7627 66.8115 16.2314C66.1182 16.7002 65.7715 17.3545 65.7715 18.1943C65.7715 18.9658 66.1133 19.542 66.7969 19.9229C67.2363 20.1768 68.1738 20.4746 69.6094 20.8164L73.3301 21.71C74.9609 22.1006 76.1914 22.623 77.0215 23.2773C78.3105 24.293 78.9551 25.7627 78.9551 27.6865C78.9551 29.6592 78.1982 31.2998 76.6846 32.6084C75.1807 33.9072 73.0518 34.5566 70.2979 34.5566C67.4854 34.5566 65.2734 33.917 63.6621 32.6377C62.0508 31.3486 61.2451 29.5811 61.2451 27.335H65.5518ZM86.1182 18.0332V27.6572C86.1182 28.5654 86.2256 29.249 86.4404 29.708C86.8213 30.5186 87.5684 30.9238 88.6816 30.9238C90.1074 30.9238 91.084 30.3477 91.6113 29.1953C91.8848 28.5703 92.0215 27.7451 92.0215 26.7197V18.0332H96.2549V34H92.1973V31.7441C92.1582 31.793 92.0605 31.9395 91.9043 32.1836C91.748 32.4277 91.5625 32.6426 91.3477 32.8281C90.6934 33.4141 90.0586 33.8145 89.4434 34.0293C88.8379 34.2441 88.125 34.3516 87.3047 34.3516C84.9414 34.3516 83.3496 33.502 82.5293 31.8027C82.0703 30.8652 81.8408 29.4834 81.8408 27.6572V18.0332H86.1182ZM108.97 17.6523C109.048 17.6523 109.111 17.6572 109.16 17.667C109.219 17.667 109.341 17.6719 109.526 17.6816V21.959C109.263 21.9297 109.028 21.9102 108.823 21.9004C108.618 21.8906 108.452 21.8857 108.325 21.8857C106.646 21.8857 105.518 22.4326 104.941 23.5264C104.619 24.1416 104.458 25.0889 104.458 26.3682V34H100.254V18.0332H104.238V20.8164C104.883 19.752 105.444 19.0244 105.923 18.6338C106.704 17.9795 107.72 17.6523 108.97 17.6523ZM117.876 12.1885C118.14 12.1885 118.379 12.1982 118.594 12.2178C118.809 12.2275 119.102 12.2471 119.473 12.2764V15.6748C119.238 15.6455 118.843 15.626 118.286 15.6162C117.739 15.5967 117.358 15.7188 117.144 15.9824C116.938 16.2363 116.836 16.5195 116.836 16.832C116.836 17.1445 116.836 17.5938 116.836 18.1797H119.575V21.124H116.836V34H112.676V21.124H110.347V18.1797H112.632V17.1543C112.632 15.4453 112.92 14.2686 113.496 13.624C114.102 12.667 115.562 12.1885 117.876 12.1885ZM133.931 27.335C134.067 28.3213 134.336 29.0586 134.736 29.5469C135.469 30.4355 136.724 30.8799 138.501 30.8799C139.565 30.8799 140.43 30.7627 141.094 30.5283C142.354 30.0791 142.983 29.2441 142.983 28.0234C142.983 27.3105 142.671 26.7588 142.046 26.3682C141.421 25.9873 140.439 25.6504 139.102 25.3574L136.816 24.8447C134.57 24.3369 133.018 23.7852 132.158 23.1895C130.703 22.1934 129.976 20.6357 129.976 18.5166C129.976 16.583 130.679 14.9766 132.085 13.6973C133.491 12.418 135.557 11.7783 138.281 11.7783C140.557 11.7783 142.495 12.3838 144.097 13.5947C145.708 14.7959 146.553 16.5439 146.631 18.8389H142.295C142.217 17.54 141.65 16.6172 140.596 16.0703C139.893 15.709 139.019 15.5283 137.974 15.5283C136.812 15.5283 135.884 15.7627 135.19 16.2314C134.497 16.7002 134.15 17.3545 134.15 18.1943C134.15 18.9658 134.492 19.542 135.176 19.9229C135.615 20.1768 136.553 20.4746 137.988 20.8164L141.709 21.71C143.34 22.1006 144.57 22.623 145.4 23.2773C146.689 24.293 147.334 25.7627 147.334 27.6865C147.334 29.6592 146.577 31.2998 145.063 32.6084C143.56 33.9072 141.431 34.5566 138.677 34.5566C135.864 34.5566 133.652 33.917 132.041 32.6377C130.43 31.3486 129.624 29.5811 129.624 27.335H133.931ZM168.179 17.6816C168.882 17.6816 169.575 17.8184 170.259 18.0918C170.942 18.3652 171.562 18.8438 172.119 19.5273C172.568 20.084 172.871 20.7676 173.027 21.5781C173.125 22.1152 173.174 22.9014 173.174 23.9365L173.145 34H168.867V23.834C168.867 23.2285 168.77 22.7305 168.574 22.3398C168.203 21.5977 167.52 21.2266 166.523 21.2266C165.371 21.2266 164.575 21.7051 164.136 22.6621C163.911 23.1699 163.799 23.7803 163.799 24.4932V34H159.595V24.4932C159.595 23.5459 159.497 22.8574 159.302 22.4277C158.95 21.6562 158.262 21.2705 157.236 21.2705C156.045 21.2705 155.244 21.6562 154.834 22.4277C154.609 22.8672 154.497 23.5215 154.497 24.3906V34H150.264V18.0625H154.321V20.3916C154.839 19.5615 155.327 18.9707 155.786 18.6191C156.597 17.9941 157.646 17.6816 158.936 17.6816C160.156 17.6816 161.143 17.9502 161.895 18.4873C162.5 18.9854 162.959 19.625 163.271 20.4062C163.818 19.4688 164.497 18.7803 165.308 18.3408C166.167 17.9014 167.124 17.6816 168.179 17.6816ZM185.83 26.2363C185.566 26.4023 185.298 26.5391 185.024 26.6465C184.761 26.7441 184.395 26.8369 183.926 26.9248L182.988 27.1006C182.109 27.2568 181.479 27.4473 181.099 27.6719C180.454 28.0527 180.132 28.6436 180.132 29.4443C180.132 30.1572 180.327 30.6748 180.718 30.9971C181.118 31.3096 181.602 31.4658 182.168 31.4658C183.066 31.4658 183.892 31.2021 184.644 30.6748C185.405 30.1475 185.801 29.1855 185.83 27.7891V26.2363ZM183.296 24.2881C184.067 24.1904 184.619 24.0684 184.951 23.9219C185.547 23.668 185.845 23.2725 185.845 22.7354C185.845 22.0811 185.615 21.6318 185.156 21.3877C184.707 21.1338 184.043 21.0068 183.164 21.0068C182.178 21.0068 181.479 21.251 181.069 21.7393C180.776 22.1006 180.581 22.5889 180.483 23.2041H176.455C176.543 21.8076 176.934 20.6602 177.627 19.7617C178.73 18.3555 180.625 17.6523 183.311 17.6523C185.059 17.6523 186.611 17.999 187.969 18.6924C189.326 19.3857 190.005 20.6943 190.005 22.6182V29.9424C190.005 30.4502 190.015 31.0654 190.034 31.7881C190.063 32.335 190.146 32.7061 190.283 32.9014C190.42 33.0967 190.625 33.2578 190.898 33.3848V34H186.357C186.23 33.6777 186.143 33.375 186.094 33.0918C186.045 32.8086 186.006 32.4863 185.977 32.125C185.4 32.75 184.736 33.2822 183.984 33.7217C183.086 34.2393 182.07 34.498 180.938 34.498C179.492 34.498 178.296 34.0879 177.349 33.2676C176.411 32.4375 175.942 31.2656 175.942 29.752C175.942 27.7891 176.699 26.3682 178.213 25.4893C179.043 25.0107 180.264 24.6689 181.875 24.4639L183.296 24.2881ZM202.397 17.6523C202.476 17.6523 202.539 17.6572 202.588 17.667C202.646 17.667 202.769 17.6719 202.954 17.6816V21.959C202.69 21.9297 202.456 21.9102 202.251 21.9004C202.046 21.8906 201.88 21.8857 201.753 21.8857C200.073 21.8857 198.945 22.4326 198.369 23.5264C198.047 24.1416 197.886 25.0889 197.886 26.3682V34H193.682V18.0332H197.666V20.8164C198.311 19.752 198.872 19.0244 199.351 18.6338C200.132 17.9795 201.147 17.6523 202.397 17.6523ZM203.774 21.1533V18.1797H206.001V13.7266H210.132V18.1797H212.725V21.1533H210.132V29.5908C210.132 30.2451 210.215 30.6553 210.381 30.8213C210.547 30.9775 211.055 31.0557 211.904 31.0557C212.031 31.0557 212.163 31.0557 212.3 31.0557C212.446 31.0459 212.588 31.0361 212.725 31.0264V34.1465L210.747 34.2197C208.774 34.2881 207.427 33.9463 206.704 33.1943C206.235 32.7158 206.001 31.9785 206.001 30.9824V21.1533H203.774Z" fill="black"/>
</svg>
