<svg width="218" height="48" viewBox="0 0 218 48" fill="none" xmlns="http://www.w3.org/2000/svg">
<path d="M69.5518 27.335C69.6885 28.3213 69.957 29.0586 70.3574 29.5469C71.0898 30.4355 72.3447 30.8799 74.1221 30.8799C75.1865 30.8799 76.0508 30.7627 76.7148 30.5283C77.9746 30.0791 78.6045 29.2441 78.6045 28.0234C78.6045 27.3105 78.292 26.7588 77.667 26.3682C77.042 25.9873 76.0605 25.6504 74.7227 25.3574L72.4375 24.8447C70.1914 24.3369 68.6387 23.7852 67.7793 23.1895C66.3242 22.1934 65.5967 20.6357 65.5967 18.5166C65.5967 16.583 66.2998 14.9766 67.7061 13.6973C69.1123 12.418 71.1777 11.7783 73.9023 11.7783C76.1777 11.7783 78.1162 12.3838 79.7178 13.5947C81.3291 14.7959 82.1738 16.5439 82.252 18.8389H77.916C77.8379 17.54 77.2715 16.6172 76.2168 16.0703C75.5137 15.709 74.6396 15.5283 73.5947 15.5283C72.4326 15.5283 71.5049 15.7627 70.8115 16.2314C70.1182 16.7002 69.7715 17.3545 69.7715 18.1943C69.7715 18.9658 70.1133 19.542 70.7969 19.9229C71.2363 20.1768 72.1738 20.4746 73.6094 20.8164L77.3301 21.71C78.9609 22.1006 80.1914 22.623 81.0215 23.2773C82.3105 24.293 82.9551 25.7627 82.9551 27.6865C82.9551 29.6592 82.1982 31.2998 80.6846 32.6084C79.1807 33.9072 77.0518 34.5566 74.2979 34.5566C71.4854 34.5566 69.2734 33.917 67.6621 32.6377C66.0508 31.3486 65.2451 29.5811 65.2451 27.335H69.5518ZM90.1182 18.0332V27.6572C90.1182 28.5654 90.2256 29.249 90.4404 29.708C90.8213 30.5186 91.5684 30.9238 92.6816 30.9238C94.1074 30.9238 95.084 30.3477 95.6113 29.1953C95.8848 28.5703 96.0215 27.7451 96.0215 26.7197V18.0332H100.255V34H96.1973V31.7441C96.1582 31.793 96.0605 31.9395 95.9043 32.1836C95.748 32.4277 95.5625 32.6426 95.3477 32.8281C94.6934 33.4141 94.0586 33.8145 93.4434 34.0293C92.8379 34.2441 92.125 34.3516 91.3047 34.3516C88.9414 34.3516 87.3496 33.502 86.5293 31.8027C86.0703 30.8652 85.8408 29.4834 85.8408 27.6572V18.0332H90.1182ZM112.97 17.6523C113.048 17.6523 113.111 17.6572 113.16 17.667C113.219 17.667 113.341 17.6719 113.526 17.6816V21.959C113.263 21.9297 113.028 21.9102 112.823 21.9004C112.618 21.8906 112.452 21.8857 112.325 21.8857C110.646 21.8857 109.518 22.4326 108.941 23.5264C108.619 24.1416 108.458 25.0889 108.458 26.3682V34H104.254V18.0332H108.238V20.8164C108.883 19.752 109.444 19.0244 109.923 18.6338C110.704 17.9795 111.72 17.6523 112.97 17.6523ZM121.876 12.1885C122.14 12.1885 122.379 12.1982 122.594 12.2178C122.809 12.2275 123.102 12.2471 123.473 12.2764V15.6748C123.238 15.6455 122.843 15.626 122.286 15.6162C121.739 15.5967 121.358 15.7188 121.144 15.9824C120.938 16.2363 120.836 16.5195 120.836 16.832C120.836 17.1445 120.836 17.5938 120.836 18.1797H123.575V21.124H120.836V34H116.676V21.124H114.347V18.1797H116.632V17.1543C116.632 15.4453 116.92 14.2686 117.496 13.624C118.102 12.667 119.562 12.1885 121.876 12.1885ZM137.931 27.335C138.067 28.3213 138.336 29.0586 138.736 29.5469C139.469 30.4355 140.724 30.8799 142.501 30.8799C143.565 30.8799 144.43 30.7627 145.094 30.5283C146.354 30.0791 146.983 29.2441 146.983 28.0234C146.983 27.3105 146.671 26.7588 146.046 26.3682C145.421 25.9873 144.439 25.6504 143.102 25.3574L140.816 24.8447C138.57 24.3369 137.018 23.7852 136.158 23.1895C134.703 22.1934 133.976 20.6357 133.976 18.5166C133.976 16.583 134.679 14.9766 136.085 13.6973C137.491 12.418 139.557 11.7783 142.281 11.7783C144.557 11.7783 146.495 12.3838 148.097 13.5947C149.708 14.7959 150.553 16.5439 150.631 18.8389H146.295C146.217 17.54 145.65 16.6172 144.596 16.0703C143.893 15.709 143.019 15.5283 141.974 15.5283C140.812 15.5283 139.884 15.7627 139.19 16.2314C138.497 16.7002 138.15 17.3545 138.15 18.1943C138.15 18.9658 138.492 19.542 139.176 19.9229C139.615 20.1768 140.553 20.4746 141.988 20.8164L145.709 21.71C147.34 22.1006 148.57 22.623 149.4 23.2773C150.689 24.293 151.334 25.7627 151.334 27.6865C151.334 29.6592 150.577 31.2998 149.063 32.6084C147.56 33.9072 145.431 34.5566 142.677 34.5566C139.864 34.5566 137.652 33.917 136.041 32.6377C134.43 31.3486 133.624 29.5811 133.624 27.335H137.931ZM172.179 17.6816C172.882 17.6816 173.575 17.8184 174.259 18.0918C174.942 18.3652 175.562 18.8438 176.119 19.5273C176.568 20.084 176.871 20.7676 177.027 21.5781C177.125 22.1152 177.174 22.9014 177.174 23.9365L177.145 34H172.867V23.834C172.867 23.2285 172.77 22.7305 172.574 22.3398C172.203 21.5977 171.52 21.2266 170.523 21.2266C169.371 21.2266 168.575 21.7051 168.136 22.6621C167.911 23.1699 167.799 23.7803 167.799 24.4932V34H163.595V24.4932C163.595 23.5459 163.497 22.8574 163.302 22.4277C162.95 21.6562 162.262 21.2705 161.236 21.2705C160.045 21.2705 159.244 21.6562 158.834 22.4277C158.609 22.8672 158.497 23.5215 158.497 24.3906V34H154.264V18.0625H158.321V20.3916C158.839 19.5615 159.327 18.9707 159.786 18.6191C160.597 17.9941 161.646 17.6816 162.936 17.6816C164.156 17.6816 165.143 17.9502 165.895 18.4873C166.5 18.9854 166.959 19.625 167.271 20.4062C167.818 19.4688 168.497 18.7803 169.308 18.3408C170.167 17.9014 171.124 17.6816 172.179 17.6816ZM189.83 26.2363C189.566 26.4023 189.298 26.5391 189.024 26.6465C188.761 26.7441 188.395 26.8369 187.926 26.9248L186.988 27.1006C186.109 27.2568 185.479 27.4473 185.099 27.6719C184.454 28.0527 184.132 28.6436 184.132 29.4443C184.132 30.1572 184.327 30.6748 184.718 30.9971C185.118 31.3096 185.602 31.4658 186.168 31.4658C187.066 31.4658 187.892 31.2021 188.644 30.6748C189.405 30.1475 189.801 29.1855 189.83 27.7891V26.2363ZM187.296 24.2881C188.067 24.1904 188.619 24.0684 188.951 23.9219C189.547 23.668 189.845 23.2725 189.845 22.7354C189.845 22.0811 189.615 21.6318 189.156 21.3877C188.707 21.1338 188.043 21.0068 187.164 21.0068C186.178 21.0068 185.479 21.251 185.069 21.7393C184.776 22.1006 184.581 22.5889 184.483 23.2041H180.455C180.543 21.8076 180.934 20.6602 181.627 19.7617C182.73 18.3555 184.625 17.6523 187.311 17.6523C189.059 17.6523 190.611 17.999 191.969 18.6924C193.326 19.3857 194.005 20.6943 194.005 22.6182V29.9424C194.005 30.4502 194.015 31.0654 194.034 31.7881C194.063 32.335 194.146 32.7061 194.283 32.9014C194.42 33.0967 194.625 33.2578 194.898 33.3848V34H190.357C190.23 33.6777 190.143 33.375 190.094 33.0918C190.045 32.8086 190.006 32.4863 189.977 32.125C189.4 32.75 188.736 33.2822 187.984 33.7217C187.086 34.2393 186.07 34.498 184.938 34.498C183.492 34.498 182.296 34.0879 181.349 33.2676C180.411 32.4375 179.942 31.2656 179.942 29.752C179.942 27.7891 180.699 26.3682 182.213 25.4893C183.043 25.0107 184.264 24.6689 185.875 24.4639L187.296 24.2881ZM206.397 17.6523C206.476 17.6523 206.539 17.6572 206.588 17.667C206.646 17.667 206.769 17.6719 206.954 17.6816V21.959C206.69 21.9297 206.456 21.9102 206.251 21.9004C206.046 21.8906 205.88 21.8857 205.753 21.8857C204.073 21.8857 202.945 22.4326 202.369 23.5264C202.047 24.1416 201.886 25.0889 201.886 26.3682V34H197.682V18.0332H201.666V20.8164C202.311 19.752 202.872 19.0244 203.351 18.6338C204.132 17.9795 205.147 17.6523 206.397 17.6523ZM207.774 21.1533V18.1797H210.001V13.7266H214.132V18.1797H216.725V21.1533H214.132V29.5908C214.132 30.2451 214.215 30.6553 214.381 30.8213C214.547 30.9775 215.055 31.0557 215.904 31.0557C216.031 31.0557 216.163 31.0557 216.3 31.0557C216.446 31.0459 216.588 31.0361 216.725 31.0264V34.1465L214.747 34.2197C212.774 34.2881 211.427 33.9463 210.704 33.1943C210.235 32.7158 210.001 31.9785 210.001 30.9824V21.1533H207.774Z" fill="black"/>
<rect width="48" height="48" rx="10" fill="#F83F3F"/>
<path fill-rule="evenodd" clip-rule="evenodd" d="M23.9988 40.5V27.3H10.7988L23.9988 7.5V20.7H37.1988L23.9988 40.5Z" fill="white"/>
</svg>
